<svg xmlns="http://www.w3.org/2000/svg" enable-background="new 0 0 64 64" viewBox="0 0 64 64"><path fill="#532306" d="M23.78 55.97l.15 2.81c.02.3-.07.59-.25.82l-.73.97c-.75 1-.48 2.42.58 3.08l0 0c.89.55 2.04.45 2.83-.24l1.61-1.41c.48-.42.75-1.03.75-1.67v-.37c0-.16.02-.32.06-.47l1.01-3.81-3.2-.16L23.78 55.97zM39.54 55.97l-.15 2.81c-.02.3.07.59.25.82l.73.97c.75 1 .48 2.42-.58 3.08l0 0c-.89.55-2.04.45-2.83-.24l-1.61-1.41c-.48-.42-.75-1.03-.75-1.67v-.37c0-.16-.02-.32-.06-.47l-1.01-3.81 3.2-.16L39.54 55.97z"/><path fill="#ec291c" d="M23.45 55.01c-.57 2.64 3.49 2.19 3.49 2.19 3.75-.39 2.73-2.19 2.73-2.19l-3.24-.87L23.45 55.01zM39.87 55.01c.57 2.64-3.49 2.19-3.49 2.19-3.75-.39-2.73-2.19-2.73-2.19l3.24-.87L39.87 55.01z"/><path fill="#fc3021" d="M20.27 51.56l3.17 3.44h6.21c.52-.57.9-1.35 1.16-2.31M43.04 51.56l-3.17 3.44h-6.21c-.52-.57-.9-1.35-1.16-2.31M38.82 38.09l6.35 1.62c2.81-1.07 6.56-3.96 11.04-8.27 0 0 3.55-.47 3.08-3.17 0 0-.83-4.18-3.44-1.74 0 0-.85-2.39-1.94-.63 0 0-.29.74-.22 1.54-1.91 1.9-5.03 3.58-11.69 4.65l-2.61 1.35L38.82 38.09z"/><path fill="#fff" d="M53.61,27.38l2.74,4.21c0.07,0.1,0.05,0.23-0.04,0.31l-1.5,1.42c-0.11,0.1-0.29,0.09-0.37-0.04
							l-3.01-4.35c-0.08-0.11-0.05-0.26,0.06-0.34l1.76-1.29C53.37,27.23,53.53,27.26,53.61,27.38z"/><path fill="#fc3021" d="M25.18,38.09l-6.35,1.62c-2.81-1.07-6.56-3.96-11.04-8.27c0,0-3.55-0.47-3.08-3.17c0,0,0.83-4.18,3.44-1.74
					c0,0,0.85-2.39,1.94-0.63c0,0,0.29,0.74,0.22,1.54c1.91,1.9,6.2,3.69,12.86,4.76l1.43,1.24L25.18,38.09z"/><path fill="#fff" d="M10.32,27.49L7.71,31.5c-0.1,0.15-0.08,0.35,0.06,0.48l1.31,1.24c0.17,0.16,0.44,0.13,0.57-0.06l2.85-4.12
					c0.12-0.17,0.08-0.4-0.09-0.52l-1.55-1.13C10.68,27.26,10.44,27.31,10.32,27.49z"/><path fill="#ec291c" d="M45.55,52.04c-9.06,1.92-18.12,1.91-27.18-0.03c-1.85-0.4-2.89-2.41-2.12-4.14
				c0.07-0.15,0.13-0.29,0.19-0.43c0.41-0.95,0.78-1.89,1.09-2.82c0.41-1.22,0.74-2.4,0.96-3.55c0.09-0.46,0.17-0.91,0.22-1.35
				c0.98-2.72,2.56-5.19,4.47-7.51l9.16,0.4l3.62-1.16c0,0,4.83,0.9,5.1,0.92c1.83,2.82,3.53,5.54,4.11,7.35
				c0.05,0.46,0.12,0.91,0.2,1.37c0.22,1.17,0.54,2.35,0.96,3.55c0.35,1.01,0.78,2.04,1.26,3.07c0.01,0.03,0.02,0.05,0.04,0.08
				C48.45,49.55,47.46,51.63,45.55,52.04z"/><path fill="#e5e7e4" d="M45.56,52.04c-9.06,1.92-18.12,1.91-27.18-0.03c-1.85-0.4-2.89-2.41-2.12-4.14
				c0.07-0.15,0.13-0.29,0.19-0.43c9.87,2.74,20.27,2.77,31.15,0.28c0.01,0.03,0.02,0.05,0.04,0.08
				C48.45,49.55,47.46,51.63,45.56,52.04z"/><path fill="#532306" d="M46.33,44.65c-9.6,4-19.2,3.99-28.8-0.03c0.41-1.22,0.74-2.4,0.96-3.55c8.97,3.57,17.93,3.58,26.89,0.02
				C45.59,42.26,45.91,43.45,46.33,44.65z"/><g><path fill="#fad041" d="M34.13,49.38h-4.41c-0.84,0-1.52-0.68-1.52-1.51v-4.41c0-0.84,0.68-1.52,1.52-1.52h4.41
						c0.84,0,1.52,0.68,1.52,1.52v4.41C35.64,48.7,34.96,49.38,34.13,49.38z M29.72,43.36c-0.05,0-0.1,0.04-0.1,0.1v4.41
						c0,0.05,0.04,0.1,0.1,0.1h4.41c0.05,0,0.1-0.04,0.1-0.1v-4.41c0-0.05-0.04-0.1-0.1-0.1H29.72z"/><rect width="2.44" height=".47" x="32.49" y="45.42" fill="#fad041"/></g><g><path fill="#fff" d="M30.81,16.54l9.97,1.12c0,0,2.68,2.28,2.68,6.21c0,0,3.17,0.8,1.07,3.58c0,0,3.53,2.64-0.27,4.51
			c0,0,1.46,3.13-2.06,3.64c0,0,0.18,1.7-1.76,1.55c0,0-0.15,2.59-3.16,1.49c0,0-1.37,2.8-3.73,1.1l-0.51,0.36
			c-0.97,0.68-2.27,0.68-3.25,0l-0.51-0.36c-2.35,1.7-3.73-1.1-3.73-1.1c-3.01,1.1-3.16-1.49-3.16-1.49
			c-1.94,0.15-1.76-1.55-1.76-1.55c-3.52-0.51-2.06-3.64-2.06-3.64c-3.8-1.88-0.27-4.51-0.27-4.51c-2.1-2.77,1.07-3.58,1.07-3.58
			c0-3.93,2.68-6.21,2.68-6.21l9.97-1.12"/><path fill="#e5e7e4" d="M42.21,35.6c0,0,0.18,1.7-1.76,1.55c0,0-0.15,2.59-3.16,1.49c0,0-1.37,2.8-3.72,1.1l-0.51,0.36
			c-0.98,0.68-2.27,0.68-3.25,0l-0.51-0.36c-2.35,1.7-3.73-1.1-3.73-1.1c-3.01,1.1-3.16-1.49-3.16-1.49
			c-1.94,0.15-1.76-1.55-1.76-1.55c-3.52-0.5-2.06-3.63-2.06-3.63c-3.8-1.88-0.27-4.52-0.27-4.52c-2.1-2.77,1.08-3.58,1.08-3.58
			c0-0.3,0.01-0.59,0.04-0.86c0.1,0.35,0.3,0.74,0.64,1.18c0,0-3.53,2.64,0.27,4.52c0,0-1.46,3.13,2.06,3.64c0,0-0.18,1.7,1.76,1.55
			c0,0,0.15,2.59,3.16,1.49c0,0,1.37,2.8,3.72,1.1l0.51,0.36c0.98,0.68,2.27,0.68,3.25,0l0.51-0.36c2.35,1.7,3.73-1.1,3.73-1.1
			c3.01,1.1,3.16-1.49,3.16-1.49c1.94,0.15,1.76-1.55,1.76-1.55c0.15-0.02,0.29-0.05,0.42-0.08C44.64,33.06,45.06,35.19,42.21,35.6z
			"/><polygon fill="#fd030f" points="32.06 16.54 31.43 16.61 30.81 16.54"/><path fill="#e82126" d="M31.43,30.38L31.43,30.38c-1.21,0-2.66-0.98-2.66-2.18v-1.98h5.32v1.98C34.09,29.41,32.64,30.38,31.43,30.38
			z"/><path fill="#eab47f" d="M22.56,24.54l-0.59-0.59c-0.36-0.36-0.55-0.87-0.5-1.38l0.33-3.44l9.64-1.97l9.64,1.97l0.33,3.44
			c0.05,0.51-0.13,1.02-0.5,1.38l-0.59,0.57C34.38,27.29,28.46,27.3,22.56,24.54z"/><path fill="#353c4e" d="M28.53,20.75c0,0.67-0.54,1.21-1.21,1.21c-0.67,0-1.21-0.54-1.21-1.21c0-0.67,0.54-1.21,1.21-1.21
					C27.99,19.54,28.53,20.08,28.53,20.75z"/><path fill="#fffeff" d="M27.7,20.35c0,0.34-0.28,0.61-0.61,0.61c-0.34,0-0.61-0.28-0.61-0.61c0-0.34,0.28-0.61,0.61-0.61
					C27.43,19.74,27.7,20.01,27.7,20.35z"/><circle cx="27.75" cy="21.26" r=".36" fill="#fffeff"/><path fill="#353c4e" d="M36.75,20.75c0,0.67-0.54,1.21-1.21,1.21c-0.67,0-1.21-0.54-1.21-1.21c0-0.67,0.54-1.21,1.21-1.21
					C36.21,19.54,36.75,20.08,36.75,20.75z"/><path fill="#fffeff" d="M35.92 20.35c0 .34-.28.61-.61.61-.34 0-.61-.28-.61-.61 0-.34.28-.61.61-.61C35.65 19.74 35.92 20.01 35.92 20.35zM36.32 21.26c0 .2-.16.36-.36.36-.2 0-.36-.16-.36-.36s.16-.36.36-.36C36.16 20.91 36.32 21.07 36.32 21.26z"/><path fill="#fc3021" d="M21.1,15.83c0,0-0.69-15.97,14.95-15.83c0,0,5.92,0.25,9.41,4.84l-0.8,0.96c0,0-4.9-2.47-5.81,1.14
				c0,0-0.32,1.56,1.12,2.9c0,0,3.12,2.96,1.45,5.98L29.84,17l-5.06-0.56L21.1,15.83z"/><path fill="#ec291c" d="M45.28,4.62c-3.52-3.71-8.63-3.93-8.63-3.93C22.81,0.57,21.76,13.05,21.7,15.93l-0.6-0.1
				c0,0-0.69-15.97,14.95-15.83C36.05,0,41.78,0.24,45.28,4.62z"/><path fill="#e5e7e4" d="M41.07,19.21c-6.45-0.8-12.96-0.79-19.53,0c-1.04,0-1.87-0.84-1.87-1.87l0,0c0-1.04,0.84-1.87,1.87-1.87
				c6.4-0.91,12.9-0.93,19.53,0c1.04,0,1.87,0.84,1.87,1.87l0,0C42.94,18.37,42.1,19.21,41.07,19.21z"/><path fill="#d0d5d5" d="M42.79,18.08c-0.09,0.22-0.23,0.42-0.39,0.58c-0.34,0.34-0.81,0.55-1.33,0.55c-6.45-0.8-12.97-0.79-19.53,0
				c-1.04,0-1.88-0.84-1.88-1.87c0-0.51,0.21-0.99,0.55-1.33c0.03-0.03,0.07-0.06,0.1-0.09c-0.1,0.23-0.16,0.49-0.16,0.75
				c0,1.03,0.84,1.87,1.88,1.87c6.57-0.79,13.08-0.8,19.53,0C42.03,18.54,42.46,18.37,42.79,18.08z"/><circle cx="46.46" cy="7.04" r="2.55" fill="#e5e7e4"/><path fill="#d0d5d5" d="M49.01,7.04c0,1.41-1.14,2.55-2.55,2.55c-0.98,0-1.84-0.56-2.26-1.37c0.46,0.53,1.15,0.86,1.91,0.86
				c1.4,0,2.55-1.14,2.55-2.55c0-0.42-0.1-0.82-0.28-1.16C48.77,5.81,49.01,6.4,49.01,7.04z"/><path fill="#38150f" d="M28.77,27.66c0,0,1.72,0.13,2.66,1.34c0.65-0.69,1.53-1.42,2.66-1.34l-1.12-0.88l-1.34-0.45l-0.93,0.27
			l-1.66,0.2L28.77,27.66z"/><path fill="#fff" d="M40.3,24.54c-3.27,3.32-6.7,3.95-8.87,2.06c-2.17,1.89-5.59,1.26-8.87-2.06c-0.15-0.15,0.02-0.39,0.21-0.31
			c2.32,0.96,3.79-0.03,3.79-0.03c2.65-2.22,4.86-0.72,4.86-0.72s2.22-1.5,4.86,0.72c0,0,1.48,1,3.79,0.03
			C40.28,24.15,40.45,24.39,40.3,24.54z"/><path fill="#e5e7e4" d="M40.3,24.54c-3.27,3.32-6.7,3.95-8.87,2.06c-2.17,1.89-5.59,1.26-8.87-2.06c-0.15-0.15,6.82,3.14,8.87,1.35
			C33.48,27.68,40.45,24.39,40.3,24.54z"/><path fill="#e82126" d="M33.27,23.48c0,0.77-0.82,1.4-1.84,1.4c-1.02,0-1.84-0.63-1.84-1.4c0-0.77,0.82-1.4,1.84-1.4
			C32.45,22.09,33.27,22.71,33.27,23.48z"/></g></svg>